<svg width="167" height="62" viewBox="0 0 167 62" fill="none" xmlns="http://www.w3.org/2000/svg">
<g clip-path="url(#clip0)">
<path d="M86.2189 20.5358L94.1641 20.0224C94.3453 21.321 94.6777 22.2874 95.2214 22.982C96.0975 24.0692 97.3059 24.6127 98.907 24.6127C100.085 24.6127 101.022 24.3409 101.656 23.7672C102.26 23.3142 102.623 22.5894 102.623 21.8344C102.623 21.1096 102.291 20.415 101.717 19.962C101.112 19.4184 99.6925 18.8748 97.457 18.3916C93.8016 17.5762 91.1733 16.489 89.6326 15.0998C88.0919 13.8013 87.2158 11.8987 87.2762 9.87529C87.2762 8.4861 87.6992 7.09692 88.4846 5.94933C89.3909 4.65074 90.6295 3.62395 92.1098 3.05015C93.7109 2.35556 95.9465 1.99316 98.756 1.99316C102.2 1.99316 104.828 2.62736 106.641 3.92595C108.453 5.19433 109.541 7.24791 109.873 10.0565L102.019 10.5095C101.807 9.30149 101.384 8.4257 100.689 7.85191C99.9946 7.27811 99.0883 7.00632 97.9101 7.00632C96.9434 7.00632 96.2183 7.21771 95.735 7.61031C95.2818 7.97271 94.9797 8.5163 95.01 9.1203C95.01 9.57329 95.2516 9.99609 95.6142 10.2679C96.0069 10.6303 96.9434 10.9625 98.4237 11.2645C102.079 12.0497 104.677 12.8349 106.278 13.6503C107.879 14.4656 109.027 15.4622 109.722 16.64C110.447 17.848 110.81 19.2372 110.779 20.6566C110.779 22.3478 110.296 24.039 109.329 25.4583C108.332 26.9381 106.943 28.0857 105.312 28.7803C103.59 29.5353 101.414 29.9279 98.8164 29.9279C94.2245 29.9279 91.0525 29.0521 89.2701 27.2703C87.4877 25.4885 86.4304 23.2538 86.2189 20.5358ZM1.90322 29.4749V2.47636H15.83C18.3978 2.47636 20.3916 2.68776 21.7511 3.14075C23.0803 3.56355 24.2585 4.43934 25.044 5.61713C25.92 6.91572 26.343 8.4257 26.3128 9.99609C26.4034 12.6537 25.044 15.1904 22.7178 16.5192C21.8115 17.0326 20.8146 17.395 19.7874 17.5762C20.5427 17.7876 21.2979 18.15 21.9626 18.5728C22.4761 18.9956 22.8991 19.4788 23.2918 19.9922C23.7449 20.5056 24.1377 21.0794 24.47 21.6834L28.5181 29.5051H19.0322L14.5611 21.2002C13.9872 20.1432 13.5038 19.4486 13.0507 19.1164C12.4465 18.6936 11.7214 18.4822 10.9964 18.4822H10.2713V29.4447H1.90322V29.4749ZM10.2713 13.4087H13.8059C14.5611 13.3483 15.2862 13.2275 16.0112 13.0463C16.555 12.9557 17.0384 12.6537 17.3707 12.2007C18.1863 11.1135 18.0655 9.57329 17.0686 8.6371C16.5248 8.1841 15.4674 7.94251 13.9569 7.94251H10.2713V13.4087ZM0 52.6079L7.94519 52.0945C8.12645 53.3931 8.45876 54.3595 9.00253 55.0541C9.84841 56.1412 11.087 56.715 12.6881 56.715C13.8663 56.715 14.8028 56.4432 15.4372 55.8694C16.0414 55.3862 16.4039 54.6917 16.4039 53.9367C16.4039 53.2119 16.0716 52.5173 15.4976 52.0643C14.8935 51.5207 13.4736 50.9771 11.2079 50.4939C7.55246 49.6785 4.9242 48.5913 3.3835 47.2021C1.8428 45.9035 0.966715 44.001 1.02713 41.9776C1.02713 40.5884 1.45007 39.1992 2.23553 38.0516C3.14182 36.753 4.38043 35.7262 5.86071 35.1524C7.46183 34.4579 9.69736 34.0955 12.5069 34.0955C15.9508 34.0955 18.5791 34.7297 20.3916 36.0282C22.2042 37.3268 23.2616 39.3502 23.5939 42.1588L15.7393 42.6118C15.5279 41.4038 15.1049 40.528 14.4101 39.9542C13.7455 39.3804 12.809 39.1086 11.6308 39.1388C10.6641 39.1388 9.93904 39.3502 9.45568 39.773C8.97232 40.1354 8.70043 40.679 8.73064 41.283C8.73064 41.736 8.97232 42.1588 9.33484 42.4306C9.72757 42.793 10.6641 43.1252 12.1444 43.4272C15.7997 44.2124 18.3978 44.9975 19.9989 45.8129C21.6 46.6283 22.748 47.6249 23.4428 48.8027C24.1679 50.0107 24.5304 51.3999 24.5304 52.7891C24.5304 54.4803 24.0168 56.1412 23.0803 57.5606C22.0834 59.0404 20.6937 60.188 19.0624 60.8826C17.3404 61.6376 15.1653 62.0302 12.5673 62.0302C7.9754 62.0302 4.80336 61.1544 3.02098 59.3726C1.2386 57.5606 0.241679 55.3258 0 52.6079H0Z" fill="black"/>
<path d="M40.1791 50.4939L47.4898 52.6985C47.0971 54.5407 46.2815 56.2922 45.1637 57.8324C44.1366 59.1914 42.7771 60.2484 41.2364 60.943C39.6655 61.6376 37.6716 62 35.2549 62C32.3245 62 29.9077 61.5772 28.0649 60.7316C26.1919 59.886 24.5908 58.376 23.2313 56.2318C21.8719 54.0877 21.2073 51.3395 21.2073 47.9873C21.2073 43.5178 22.3855 40.075 24.772 37.6892C27.1586 35.3034 30.5119 34.0955 34.8621 34.0955C38.2758 34.0955 40.9343 34.7901 42.8979 36.149C44.8314 37.5382 46.2815 39.6522 47.2482 42.491L39.877 44.1218C39.6957 43.4876 39.4238 42.8534 39.0613 42.3098C38.6082 41.6756 38.0342 41.1924 37.3393 40.83C36.6445 40.4676 35.8591 40.3166 35.0736 40.3166C33.1704 40.3166 31.7203 41.0716 30.7234 42.6118C29.9681 43.7292 29.5754 45.5109 29.5754 47.9269C29.5754 50.9167 30.0286 52.9703 30.9348 54.0877C31.8411 55.2051 33.11 55.7486 34.7715 55.7486C36.3726 55.7486 37.581 55.2957 38.3967 54.4199C39.2123 53.4837 39.8165 52.1851 40.1791 50.4939ZM57.2476 34.5485H65.5855V44.001H74.7089V34.5485H83.1073V61.547H74.7089V50.6147H65.5855V61.547H57.2476V34.5485Z" fill="black"/>
<path d="M81.9592 48.0477C81.9592 43.6386 83.1978 40.1958 85.6448 37.7496C88.0918 35.3034 91.5358 34.0652 95.9162 34.0652C100.417 34.0652 103.861 35.2732 106.308 37.6892C108.755 40.1052 109.964 43.4876 109.964 47.8363C109.964 51.0073 109.42 53.5743 108.363 55.5976C107.336 57.5908 105.734 59.2216 103.771 60.3088C101.747 61.4262 99.2393 62 96.2485 62C93.1973 62 90.6899 61.5168 88.696 60.5504C86.6418 59.5236 84.95 57.923 83.8322 55.96C82.5936 53.8461 81.9592 51.2187 81.9592 48.0477ZM90.2971 48.0779C90.2971 50.7959 90.8107 52.7589 91.8076 53.9669C92.8046 55.1446 94.1942 55.7486 95.9464 55.7486C97.7288 55.7486 99.1184 55.1748 100.115 53.9971C101.112 52.8193 101.596 50.7355 101.596 47.7155C101.596 45.1787 101.082 43.3064 100.055 42.1588C99.0278 40.981 97.6381 40.4072 95.886 40.4072C94.3453 40.3468 92.865 41.0112 91.8379 42.189C90.8107 43.3668 90.2971 45.3297 90.2971 48.0779ZM118.513 48.0477C118.513 43.6386 119.752 40.1958 122.199 37.7496C124.646 35.3034 128.09 34.0652 132.47 34.0652C136.971 34.0652 140.445 35.2732 142.862 37.6892C145.279 40.1052 146.518 43.4876 146.518 47.8363C146.518 51.0073 145.974 53.5743 144.917 55.5976C143.889 57.5908 142.288 59.2216 140.325 60.3088C138.301 61.4262 135.793 62 132.802 62C129.751 62 127.244 61.5168 125.25 60.5504C123.196 59.5236 121.504 57.923 120.386 55.96C119.148 53.8461 118.513 51.2187 118.513 48.0477ZM126.851 48.0779C126.851 50.7959 127.365 52.7589 128.362 53.9669C129.358 55.1446 130.748 55.7486 132.5 55.7486C134.283 55.7486 135.672 55.1748 136.669 53.9971C137.666 52.8193 138.15 50.7355 138.15 47.7155C138.15 45.1787 137.636 43.3064 136.609 42.1588C135.582 40.981 134.192 40.4072 132.44 40.4072C130.899 40.3468 129.389 41.0112 128.392 42.189C127.365 43.3668 126.851 45.3297 126.851 48.0779Z" fill="black"/>
<path d="M145.642 34.5485H153.979V54.9031H167V61.547H145.611V34.5485H145.642Z" fill="black"/>
<path d="M136.452 32.9904C144.846 26.6666 147.435 15.9467 142.233 9.04684C137.032 2.14701 126.01 1.68006 117.616 8.00388C109.221 14.3277 106.633 25.0476 111.834 31.9474C117.035 38.8472 128.057 39.3142 136.452 32.9904Z" fill="white"/>
<path d="M136.749 33.1148C145.143 26.791 147.732 16.0711 142.53 9.17129C137.329 2.27146 126.307 1.80451 117.913 8.12833C109.518 14.4521 106.93 25.172 112.131 32.0719C117.333 38.9717 128.354 39.4386 136.749 33.1148Z" stroke="black" stroke-width="2" stroke-miterlimit="10"/>
<path d="M118.12 18.6634L121.141 16.5494L124.857 21.8344C125.492 22.68 125.975 23.586 126.338 24.5826C126.549 25.3375 126.489 26.1529 126.186 26.8777C125.794 27.7837 125.159 28.5387 124.313 29.0823C123.317 29.7769 122.471 30.1695 121.746 30.2903C121.051 30.4111 120.326 30.2903 119.661 29.9883C118.936 29.6259 118.302 29.1125 117.818 28.4481L120.416 26.0321C120.628 26.3643 120.9 26.6663 121.202 26.9079C121.413 27.0589 121.655 27.1495 121.927 27.1495C122.138 27.1495 122.35 27.0589 122.501 26.9381C122.803 26.7569 123.014 26.3945 122.984 26.0321C122.894 25.5187 122.682 25.0054 122.35 24.6128L118.12 18.6634ZM127.183 22.0156L129.933 19.8412C130.235 20.2036 130.627 20.4754 131.05 20.6264C131.654 20.8076 132.289 20.6868 132.802 20.2942C133.165 20.0526 133.467 19.7204 133.588 19.2976C133.769 18.754 133.467 18.15 132.923 17.9688C132.833 17.9386 132.742 17.9084 132.651 17.9084C132.289 17.8782 131.654 18.0292 130.718 18.4218C129.177 19.056 127.969 19.2976 127.063 19.207C126.186 19.1164 125.371 18.6634 124.887 17.9084C124.525 17.395 124.344 16.791 124.313 16.187C124.313 15.4924 124.495 14.7978 124.887 14.2241C125.461 13.4087 126.156 12.7141 127.002 12.1705C128.271 11.2947 129.389 10.8719 130.355 10.8719C131.322 10.8719 132.228 11.3249 133.074 12.2611L130.355 14.4053C129.812 13.7107 128.785 13.5597 128.09 14.1033L127.999 14.1939C127.697 14.3751 127.486 14.6469 127.365 14.979C127.274 15.2206 127.334 15.4924 127.486 15.7038C127.606 15.8548 127.788 15.9756 127.999 15.9756C128.241 16.0058 128.664 15.885 129.268 15.6132C130.778 14.979 131.926 14.6167 132.712 14.4959C133.376 14.3751 134.071 14.4355 134.706 14.7073C135.28 14.9488 135.763 15.3716 136.095 15.885C136.518 16.489 136.76 17.2138 136.79 17.9688C136.82 18.754 136.609 19.509 136.186 20.1734C135.642 20.9888 134.947 21.6834 134.132 22.227C132.47 23.3746 131.111 23.8578 130.023 23.6766C128.845 23.4954 127.878 22.8914 127.183 22.0156Z" fill="black"/>
</g>
<defs>
<clipPath id="clip0">
<rect width="167" height="62" fill="white"/>
</clipPath>
</defs>
</svg>
