<svg width="165" height="44" viewBox="0 0 165 44" fill="none" xmlns="http://www.w3.org/2000/svg">
<path fill-rule="evenodd" clip-rule="evenodd" d="M68.4606 36.4427H68.3867C68.42 36.4427 68.4421 36.479 68.4754 36.4826H68.4975L68.4606 36.4463V36.4427ZM68.4754 36.4826C68.1318 36.4863 67.2672 36.6643 66.3547 36.6643C63.4729 36.6643 62.4754 35.3563 62.4754 33.6486V22.2726H68.3498C68.6823 22.2726 68.9409 21.982 68.9409 21.5823V15.4056C68.9409 15.0786 68.6453 14.7879 68.3498 14.7879H62.4754V7.1216C62.4754 6.83093 62.2906 6.64927 61.9581 6.64927H53.9778C53.6453 6.64927 53.4606 6.83093 53.4606 7.1216V15.0059C53.4606 15.0059 49.4335 15.9869 49.1749 16.0233C48.8793 16.0959 48.6946 16.3503 48.6946 16.641V21.5823C48.6946 21.982 48.9902 22.2726 49.3227 22.2726H53.4236V34.19C53.4236 43.0553 59.7044 43.9637 63.9901 43.9637C65.9483 43.9637 68.3128 43.346 68.6823 43.1643C68.9039 43.0917 69.0148 42.8373 69.0148 42.583V37.133C69.0199 36.9784 68.9681 36.8272 68.8691 36.7071C68.77 36.587 68.6302 36.506 68.4754 36.479V36.4826ZM156.022 28.4893C156.022 21.9129 153.325 21.0409 150.48 21.3316C148.264 21.4769 146.49 22.5669 146.49 22.5669V35.3563C146.49 35.3563 148.3 36.5916 150.998 36.6643C154.803 36.7733 156.022 35.429 156.022 28.4893ZM165 27.9079C165 40.3703 160.899 43.931 153.732 43.931C147.672 43.931 144.421 40.9153 144.421 40.9153C144.421 40.9153 144.273 42.5866 144.089 42.8046C143.978 43.0226 143.793 43.0953 143.571 43.0953H138.103C137.734 43.0953 137.401 42.8046 137.401 42.4776L137.475 2.11122C137.475 1.78422 137.771 1.49356 138.103 1.49356H145.973C146.305 1.49356 146.601 1.78422 146.601 2.11122V15.8089C146.601 15.8089 149.631 13.8832 154.064 13.8832L154.027 13.8106C158.461 13.8106 165 15.4456 165 27.9079ZM132.783 14.7916H125.025C124.618 14.7916 124.397 15.0822 124.397 15.4819V35.2473C124.397 35.2473 122.365 36.6643 119.594 36.6643C116.823 36.6643 116.01 35.429 116.01 32.7039V15.4419C116.01 15.1149 115.714 14.8243 115.382 14.8243H107.475C107.143 14.8243 106.847 15.1149 106.847 15.4419V34.0083C106.847 42.0017 111.392 44 117.635 44C122.771 44 126.946 41.2023 126.946 41.2023C126.946 41.2023 127.131 42.6193 127.241 42.8373C127.315 43.019 127.574 43.1643 127.833 43.1643H132.783C133.19 43.1643 133.411 42.8737 133.411 42.5467L133.485 15.4056C133.485 15.0786 133.19 14.7879 132.783 14.7879V14.7916ZM45.2217 14.7552H37.3522C37.0197 14.7552 36.7241 15.0822 36.7241 15.4819V42.1506C36.7241 42.8773 37.2044 43.1316 37.8325 43.1316H44.9261C45.665 43.1316 45.8498 42.8046 45.8498 42.1506V15.3693C45.8498 15.0423 45.5542 14.7516 45.2217 14.7516V14.7552ZM41.3424 2.47456C38.4975 2.47456 36.2438 4.6909 36.2438 7.48857C36.2438 10.2862 38.4975 12.5026 41.3424 12.5026C44.1133 12.5026 46.367 10.2862 46.367 7.48857C46.367 4.6909 44.1133 2.47456 41.3424 2.47456ZM102.266 1.56622H94.4704C94.1379 1.56622 93.8424 1.85689 93.8424 2.18389V17.0443H81.6133V2.18026C81.6133 1.85326 81.3177 1.56259 80.9852 1.56259H73.1158C72.7833 1.56259 72.4877 1.85326 72.4877 2.18026V42.5467C72.4877 42.8737 72.8202 43.1643 73.1158 43.1643H80.9852C81.3177 43.1643 81.6133 42.8737 81.6133 42.5467V25.2883H93.8424L93.7685 42.5467C93.7685 42.8737 94.064 43.1643 94.3965 43.1643H102.266C102.599 43.1643 102.894 42.8737 102.894 42.5467V2.18026C102.894 1.85326 102.599 1.56259 102.266 1.56259V1.56622ZM32.5493 19.4386V40.294C32.5493 40.4393 32.5123 40.6937 32.3276 40.7663C32.3276 40.7663 27.7094 44 20.0985 44C10.899 44 0 41.166 0 22.4906C0 3.81526 9.53202 -0.0360798 18.8424 0.000253568C26.8966 0.000253568 30.1478 1.78059 30.665 2.10759C30.8128 2.28926 30.8867 2.43459 30.8867 2.61626L29.335 9.0836C29.335 9.4106 29.0025 9.81027 28.5961 9.70127C27.266 9.30161 25.2709 8.50227 20.5788 8.50227C15.1478 8.50227 9.31034 10.0283 9.31034 22.0546C9.31034 34.081 14.8522 35.498 18.8424 35.498C22.2414 35.498 23.4606 35.0983 23.4606 35.0983V26.7416H18.0296C17.6232 26.7416 17.3276 26.451 17.3276 26.124V19.4386C17.3276 19.1116 17.6232 18.821 18.0296 18.821H31.8473C32.2537 18.821 32.5493 19.1116 32.5493 19.4386Z" fill="white"/>
</svg>
